HIERARCHY
ROOT SpineBase
{
  OFFSET 0.000000 0.000000 0.000000
  CHANNELS 6 Xposition Yposition Zposition Zrotation Xrotation Yrotation
  JOINT SpineMid
  {
    OFFSET 0.000000 25.902012 0.000000
    CHANNELS 3 Zrotation Xrotation Yrotation
    JOINT SpineShoulder
    {
      OFFSET -0.425089 19.528407 -0.692991
      CHANNELS 3 Zrotation Xrotation Yrotation
      JOINT Neck
      {
        OFFSET -0.237624 6.532762 -0.559099
        CHANNELS 3 Zrotation Xrotation Yrotation
        JOINT Head
        {
          OFFSET -3.204641 13.370431 0.509438
          CHANNELS 3 Zrotation Xrotation Yrotation
          End Site
          {
            OFFSET 0 0 0
          }
        }
      }
      JOINT ShoulderLeft
      {
        OFFSET -12.337320 -3.706353 7.106408
        CHANNELS 3 Zrotation Xrotation Yrotation
        JOINT ElbowLeft
        {
          OFFSET 0.191631 -20.941273 -5.748037
          CHANNELS 3 Zrotation Xrotation Yrotation
          JOINT WristLeft
          {
            OFFSET -2.250556 -19.623985 1.831354
            CHANNELS 3 Zrotation Xrotation Yrotation
            JOINT HandLeft
            {
              OFFSET 1.523769 -3.463923 0.056129
              CHANNELS 3 Zrotation Xrotation Yrotation
              JOINT HandTipLeft
              {
                OFFSET 1.145732 -6.786465 1.543175
                CHANNELS 3 Zrotation Xrotation Yrotation
                End Site
                {
                  OFFSET 0 0 0
                }
              }
              JOINT ThumbLeft
              {
                OFFSET 2.778156 -0.539729 -3.868234
                CHANNELS 3 Zrotation Xrotation Yrotation
                End Site
                {
                  OFFSET 0 0 0
                }
              }
            }
          }
        }
      }
      JOINT ShoulderRight
      {
        OFFSET 11.597814 -2.210893 -9.014800
        CHANNELS 3 Zrotation Xrotation Yrotation
        JOINT ElbowRight
        {
          OFFSET 3.560638 -20.917424 -3.639221
          CHANNELS 3 Zrotation Xrotation Yrotation
          JOINT WristRight
          {
            OFFSET -2.137146 -20.562780 -2.358889
            CHANNELS 3 Zrotation Xrotation Yrotation
            JOINT HandRight
            {
              OFFSET -3.911788 -6.586279 -0.729745
              CHANNELS 3 Zrotation Xrotation Yrotation
              JOINT HandTipRight
              {
                OFFSET -0.942634 -6.409568 0.497314
                CHANNELS 3 Zrotation Xrotation Yrotation
                End Site
                {
                  OFFSET 0 0 0
                }
              }
              JOINT ThumbRight
              {
                OFFSET -3.254160 -0.957003 -3.534856
                CHANNELS 3 Zrotation Xrotation Yrotation
                End Site
                {
                  OFFSET 0 0 0
                }
              }
            }
          }
        }
      }
    }
  }
  JOINT HipLeft
  {
    OFFSET -6.254804 -0.148264 0.425133
    CHANNELS 3 Zrotation Xrotation Yrotation
    JOINT KneeLeft
    {
      OFFSET 7.215402 -36.544645 9.508777
      CHANNELS 3 Zrotation Xrotation Yrotation
      JOINT AnkleLeft
      {
        OFFSET 9.194394 -37.323553 10.496489
        CHANNELS 3 Zrotation Xrotation Yrotation
        JOINT FootLeft
        {
          OFFSET -7.005049 -7.726413 -3.148420
          CHANNELS 3 Zrotation Xrotation Yrotation
          End Site
          {
            OFFSET 0 0 0
          }
        }
      }
    }
  }
  JOINT HipRight
  {
    OFFSET 5.388606 2.158818 -6.406819
    CHANNELS 3 Zrotation Xrotation Yrotation
    JOINT KneeRight
    {
      OFFSET 8.556779 -37.145775 7.202696
      CHANNELS 3 Zrotation Xrotation Yrotation
      JOINT AnkleRight
      {
        OFFSET 7.243383 -38.381974 8.087778
        CHANNELS 3 Zrotation Xrotation Yrotation
        JOINT FootRight
        {
          OFFSET -6.015887 -7.208085 -1.167038
          CHANNELS 3 Zrotation Xrotation Yrotation
          End Site
          {
            OFFSET 0 0 0
          }
        }
      }
    }
  }
}
MOTION
Frames: 13
Frame Time: 0.033333
49.216916 82.559297 367.060321 -0.000000 0.000000 30.402943 -0.000000 0.000000 -30.402943 -0.000000 0.000000 0.000000 -0.000000 0.000000 0.000000 0.000000 0.000000 0.000000 -0.000000 0.000000 0.000000 -0.000000 0.000000 0.000000 -0.000000 0.000000 0.000000 -0.000000 0.000000 0.000000 0.000000 0.000000 0.000000 0.000000 0.000000 0.000000 -0.000000 0.000000 0.000000 -0.000000 0.000000 0.000000 -0.000000 0.000000 0.000000 -0.000000 0.000000 0.000000 0.000000 0.000000 0.000000 0.000000 0.000000 0.000000 -0.000000 0.000000 -30.402943 -0.000000 0.000000 0.000000 -0.000000 0.000000 0.000000 0.000000 0.000000 0.000000 -0.000000 0.000000 -30.402943 -0.000000 0.000000 0.000000 -0.000000 0.000000 0.000000 0.000000 0.000000 0.000000
49.693876 82.691474 367.715303 0.893902 -0.992928 30.957557 -0.255924 1.311260 -30.946882 -0.000000 0.000000 0.000000 -0.000000 0.000000 0.000000 0.000000 0.000000 0.000000 -0.000000 0.000000 0.000000 -0.000000 0.000000 0.000000 -1.649172 1.374507 0.601650 0.669686 -3.005843 -1.088075 0.000000 0.000000 0.000000 0.000000 0.000000 0.000000 -0.000000 0.000000 0.000000 -2.384252 0.375048 0.241763 4.717983 -1.161751 0.005442 -7.484332 1.781909 -0.611901 0.000000 0.000000 0.000000 0.000000 0.000000 0.000000 -0.477814 2.322782 -30.976003 0.710847 -0.753052 0.040829 -0.902583 -3.288529 3.338478 0.000000 0.000000 0.000000 -0.150022 2.265936 -30.826352 0.398320 -0.874051 -0.120798 3.926380 -8.072982 6.649139 0.000000 0.000000 0.000000
50.148105 82.795284 368.254552 1.705346 -1.800332 31.464805 -0.694588 1.236622 -31.428904 -0.198123 0.326772 0.003310 -0.269232 0.780837 0.007200 0.000000 0.000000 0.000000 0.152572 -0.027176 -0.118960 -1.354313 0.310367 0.105243 -2.007328 3.301288 1.326372 1.331813 -5.745311 -2.071610 0.000000 0.000000 0.000000 0.000000 0.000000 0.000000 -0.269232 0.780837 0.007200 -4.192665 0.669824 0.434139 8.785580 -2.356407 0.208623 -13.485136 3.749409 -0.965540 0.000000 0.000000 0.000000 0.000000 0.000000 0.000000 -0.948483 4.324799 -31.480003 0.779317 -0.595818 0.118569 -0.760609 -6.977040 6.095071 0.000000 0.000000 0.000000 -0.379459 4.220247 -31.223911 0.814204 -1.605348 -0.199670 8.247462 -14.623760 12.994604 0.000000 0.000000 0.000000
50.579602 82.870728 368.678068 2.432896 -2.420500 31.875145 -0.959203 1.663252 -31.800027 -0.315532 0.444358 0.006627 -0.424142 1.069075 0.006551 0.000000 0.000000 0.000000 0.144557 -0.088752 -0.165445 -1.898947 0.666003 0.125883 -2.463411 4.771097 2.092811 2.042937 -8.093020 -2.850885 0.000000 0.000000 0.000000 0.000000 0.000000 0.000000 -0.424142 1.069075 0.006551 -5.469345 0.896224 0.574191 12.122749 -3.549232 0.586504 -18.112962 5.868055 -1.144783 0.000000 0.000000 0.000000 0.000000 0.000000 0.000000 -1.433982 6.017482 -31.875294 1.138441 -0.901572 0.164386 -0.524034 -9.587644 8.323972 0.000000 0.000000 0.000000 -0.707142 5.857321 -31.546390 1.247417 -2.189092 -0.237138 11.891204 -18.854345 17.828944 0.000000 0.000000 0.000000
50.988368 82.917804 368.985850 3.075479 -2.852735 32.147202 -1.175996 1.957565 -32.030355 -0.444774 0.530237 0.010928 -0.804307 2.202288 0.236315 0.000000 0.000000 0.000000 0.080416 -0.182255 -0.202518 -2.355294 1.159655 0.124357 -2.454032 6.100640 2.882083 2.859673 -9.923989 -3.323665 0.000000 0.000000 0.000000 0.000000 0.000000 0.000000 -0.592485 1.288948 0.002847 -6.244850 1.062836 0.660158 14.627274 -4.699056 1.103911 -21.404397 8.114908 -1.234678 0.000000 0.000000 0.000000 0.000000 0.000000 0.000000 -1.957068 7.408856 -32.128390 1.495532 -1.232733 0.200614 0.068482 -11.486548 9.955423 0.000000 0.000000 0.000000 -1.152910 7.172095 -31.752896 1.697311 -2.621632 -0.234198 13.854176 -20.603063 20.108551 0.000000 0.000000 0.000000
51.374402 82.936514 369.177898 3.632346 -3.097036 32.249861 -1.349411 2.117212 -32.095187 -0.585484 0.583880 0.016071 -1.091594 2.442675 0.259029 0.000000 0.000000 0.000000 -0.039775 -0.307607 -0.229964 -2.722867 1.795356 0.099819 -1.911785 7.273178 3.662020 3.816398 -11.119895 -3.408271 0.000000 0.000000 0.000000 0.000000 0.000000 0.000000 -0.774194 1.440356 -0.004138 -6.534934 1.175022 0.690517 16.193990 -5.762546 1.714914 -23.338314 10.470062 -1.322955 0.000000 0.000000 0.000000 0.000000 0.000000 0.000000 -2.538474 8.503747 -32.214868 1.861484 -1.597363 0.228013 0.982925 -12.617349 10.941893 0.000000 0.000000 0.000000 -1.733805 8.159011 -31.813764 2.162801 -2.900420 -0.192308 13.541851 -19.842586 19.192022 0.000000 0.000000 0.000000
52.021030 82.933084 369.164850 4.540447 -2.993439 31.967411 -1.754822 2.151933 -31.760632 -0.808860 0.538552 0.025036 -1.528050 2.626602 0.265906 0.000000 0.000000 0.000000 -0.148924 -0.153601 -0.312564 -3.651573 2.184053 0.076998 0.634416 9.425458 4.858968 7.790372 -12.202169 -1.822295 0.000000 0.000000 0.000000 0.000000 0.000000 0.000000 -1.218241 0.743119 -0.138482 -6.439148 2.206234 0.890596 17.522196 -7.226984 2.652214 -23.348220 13.192683 -1.602776 0.000000 0.000000 0.000000 0.000000 0.000000 0.000000 -4.082787 9.215097 -31.981218 2.468243 -1.457589 0.425832 1.412991 -10.553849 8.817062 0.000000 0.000000 0.000000 -3.476984 9.012172 -31.560913 3.153146 -2.842947 0.034414 9.163777 -8.796098 7.132541 0.000000 0.000000 0.000000
52.343217 82.894593 369.061602 4.852574 -2.753530 31.623446 -1.805374 1.933797 -31.407902 -0.984720 0.509347 0.031173 -1.888033 2.598736 0.257230 0.000000 0.000000 0.000000 -0.259262 -0.254889 -0.357819 -4.501098 3.194023 -0.008525 0.163970 5.052864 3.467767 10.333471 -7.823671 -0.218143 0.000000 0.000000 0.000000 0.000000 0.000000 0.000000 -1.385862 0.548360 -0.194335 -5.638977 2.349712 0.831134 16.549132 -7.922206 3.287846 -20.973703 15.641622 -2.179199 0.000000 0.000000 0.000000 0.000000 0.000000 0.000000 -4.789251 10.064318 -31.625938 3.107164 -2.854170 0.288503 2.037137 -12.491797 11.560533 0.000000 0.000000 0.000000 -4.398921 9.070797 -31.264731 3.622932 -2.695923 0.164919 6.451120 -1.946780 0.725176 0.000000 0.000000 0.000000
52.367212 82.793711 368.836834 4.658480 -2.337667 31.290441 -1.593408 1.520013 -31.101326 -1.084637 0.484266 0.034616 -2.198167 2.319865 0.225468 0.000000 0.000000 0.000000 -0.493988 -0.641438 -0.334431 -3.825945 4.326165 -0.083285 4.508700 9.372862 5.635253 13.106059 -5.882155 1.578759 0.000000 0.000000 0.000000 0.000000 0.000000 0.000000 -1.325427 0.306416 -0.255541 -4.485372 2.189772 0.709039 15.143515 -8.508882 3.976748 -19.691268 17.587583 -2.712151 0.000000 0.000000 0.000000 0.000000 0.000000 0.000000 -4.984789 9.759780 -31.346565 3.371366 -3.190004 0.289023 4.106641 -12.133255 10.997350 0.000000 0.000000 0.000000 -4.674501 8.346578 -31.032348 3.651871 -2.390228 0.231242 3.794099 -2.742790 1.823244 0.000000 0.000000 0.000000
52.316848 82.695285 368.754878 4.338350 -2.121269 30.872303 -1.255838 1.158097 -30.705647 -1.200995 0.568389 0.036702 -2.414251 1.894319 0.161272 0.000000 0.000000 0.000000 -1.225064 -1.676360 -0.157843 -2.520393 6.405587 -0.332829 5.257518 9.889335 6.411728 8.666044 -8.291382 -0.146887 0.000000 0.000000 0.000000 0.000000 0.000000 0.000000 -1.270527 0.162383 -0.279565 -3.278438 1.730635 0.567081 15.251091 -7.803619 3.755503 -19.313845 17.360043 -2.651965 0.000000 0.000000 0.000000 0.000000 0.000000 0.000000 -4.938774 9.976572 -30.943691 4.077230 -4.010947 0.340192 2.847448 -9.200975 8.531650 0.000000 0.000000 0.000000 -4.542000 7.902728 -30.655284 3.599638 -2.349341 0.228224 -0.226180 6.149463 -5.033183 0.000000 0.000000 0.000000
52.356135 82.624890 368.688336 4.233702 -1.953643 30.405140 -1.070795 0.906864 -30.246019 -1.236696 0.593430 0.043491 -2.829726 1.725689 0.139808 0.000000 0.000000 0.000000 -1.644923 -2.674439 -0.108874 -2.017643 8.606544 -0.495133 5.165100 8.629005 6.619441 8.190479 -6.337131 -0.200666 0.000000 0.000000 0.000000 0.000000 0.000000 0.000000 -1.670057 0.115791 -0.242481 0.055018 1.008456 0.161351 10.200320 -7.352501 4.144309 -16.882757 20.417872 -3.419389 0.000000 0.000000 0.000000 0.000000 0.000000 0.000000 -5.244025 10.064689 -30.520376 5.391981 -4.056123 0.779467 4.467667 -10.743292 9.014703 0.000000 0.000000 0.000000 -4.687782 7.774321 -30.208617 3.729944 -2.394810 0.246901 2.008199 4.747910 -4.406045 0.000000 0.000000 0.000000
52.152535 82.556282 368.678469 3.751106 -1.897318 29.953683 -0.658181 0.623707 -29.815290 -1.275331 0.590058 0.041813 -3.007045 1.592946 0.124570 0.000000 0.000000 0.000000 -1.887463 -3.781169 -0.052648 -1.361747 11.094609 -0.686385 5.040516 5.292562 6.024303 10.181111 -4.696413 1.011193 0.000000 0.000000 0.000000 0.000000 0.000000 0.000000 -1.395168 0.109530 -0.286067 0.868366 0.357985 0.135767 7.374627 -6.232530 3.816122 -11.812351 18.683837 -3.944163 0.000000 0.000000 0.000000 0.000000 0.000000 0.000000 -4.881742 8.977074 -30.146561 4.971164 -3.421454 0.754775 7.200662 -9.755355 7.195311 0.000000 0.000000 0.000000 -4.008019 7.512888 -29.721310 3.047112 -3.359027 -0.102988 0.136261 12.655403 -9.492319 0.000000 0.000000 0.000000
51.671399 82.478980 368.767155 2.822293 -2.021329 29.770753 0.014556 0.359191 -29.668810 -1.265328 0.655356 0.034463 -2.854532 1.369267 0.095291 0.000000 0.000000 0.000000 -2.000865 -5.140357 0.020970 -0.431505 13.850594 -0.943316 3.343256 0.877068 4.930172 12.719346 -1.915766 2.111838 0.000000 0.000000 0.000000 0.000000 0.000000 0.000000 -0.570611 0.156858 -0.371084 1.328200 -0.284447 0.166021 5.318597 -5.304478 3.608671 -9.165514 16.642788 -3.960196 0.000000 0.000000 0.000000 0.000000 0.000000 0.000000 -3.675576 8.804915 -29.929603 4.753403 -3.777004 0.637642 8.543186 -8.762924 5.686845 0.000000 0.000000 0.000000 -2.377836 7.052077 -29.451570 2.481213 -4.074121 -0.357659 -0.344516 13.609264 -9.784594 0.000000 0.000000 0.000000
